<svg width="50" height="50" viewBox="0 0 50 50" fill="none" xmlns="http://www.w3.org/2000/svg">
<path d="M28.0556 0.0927643V25.8813C28.0556 27.0872 27.1296 27.9221 26.0185 27.9221H22.963C22.7778 27.9221 22.6852 28.1076 22.6852 28.2004V49.8145C23.4259 49.8145 24.1667 50 25 50C38.7963 50 50 38.7755 50 24.9536C50 12.2449 40.463 1.57699 28.0556 0.0927643ZM27.5 38.6827C25.7407 38.6827 24.4444 37.1985 24.4444 35.6215C24.4444 33.859 25.9259 32.5603 27.5 32.5603C29.2593 32.5603 30.5556 34.0445 30.5556 35.6215C30.7407 37.2913 29.2593 38.6827 27.5 38.6827ZM34.8148 38.6827C33.0556 38.6827 31.7593 37.1985 31.7593 35.6215C31.7593 33.859 33.2407 32.5603 34.8148 32.5603C36.5741 32.5603 37.8704 34.0445 37.8704 35.6215C37.8704 37.1985 36.6667 38.6827 34.8148 38.6827ZM42.2222 38.6827C40.463 38.6827 39.1667 37.1985 39.1667 35.6215C39.1667 33.859 40.6481 32.5603 42.2222 32.5603C43.9815 32.5603 45.2778 34.0445 45.2778 35.6215C45.2778 37.1985 43.9815 38.6827 42.2222 38.6827Z" fill="#00B956"/>
<path d="M25 0C11.2037 0 0 11.2245 0 25.0464C0 37.1985 8.42593 47.1243 19.7222 49.4434V26.9017C19.7222 25.8813 20.6481 25.0464 21.5741 24.8609H24.6296C24.8148 24.8609 24.9074 24.6753 24.9074 24.5826L25 0ZM20.1852 20.5937C18.4259 20.5937 17.1296 19.1095 17.1296 17.5325C17.1296 15.7699 18.6111 14.4712 20.1852 14.4712C21.9444 14.4712 23.2407 15.9555 23.2407 17.5325C23.2407 19.1095 21.8519 20.5937 20.1852 20.5937Z" fill="#00B956"/>
</svg>
