<svg width="50" height="50" viewBox="0 0 50 50" fill="none" xmlns="http://www.w3.org/2000/svg">
<path d="M50 0H0V50H50V0Z" fill="black"/>
<path d="M50 0H0V50H50V0Z" fill="#FF0032"/>
<path d="M33.3091 3.84534V6.14643H38.3408V15.3815H41.1533V6.14643H46.1748V3.84534H33.3091Z" fill="white"/>
<path d="M15.2177 3.84534L11.5359 11.4748L7.86444 3.84534H3.84522V15.3815H6.66788V7.12823L10.2576 14.1031H12.8245L16.4142 7.12823V15.3815H19.2267V3.84534H15.2177Z" fill="white"/>
<path d="M43.362 42.3092C43.2905 42.7694 43.1064 43.1478 42.8098 43.4342C42.5336 43.7001 42.1552 43.8944 41.6848 44.0069C41.2245 44.1092 40.5394 44.1706 39.8235 44.1706C39.0769 44.1706 38.4224 44.0785 37.8599 43.8842C37.3178 43.7001 36.8883 43.3728 36.5917 42.9228C36.2849 42.4728 36.1315 41.8184 36.1315 40.9695V39.7934C36.1315 38.9548 36.2849 38.3002 36.5917 37.84C36.8985 37.39 37.3178 37.0628 37.8599 36.8787C38.4122 36.6844 39.0769 36.5924 39.8235 36.5924C40.5394 36.5924 41.2245 36.6537 41.6848 36.756C42.1552 36.8685 42.5336 37.0525 42.8098 37.3286C43.1064 37.615 43.2905 37.9934 43.362 38.4536H46.1744C46.0926 37.5025 45.7757 36.6947 45.2132 36.0401C44.7018 35.4469 43.9859 35.0174 43.0961 34.7515C42.237 34.4958 41.1018 34.3628 39.8235 34.3628C38.4735 34.3628 37.3076 34.5572 36.3462 34.9356C35.3748 35.3242 34.618 35.9685 34.0964 36.8583C33.5952 37.707 33.3395 38.8525 33.3191 40.2434V40.3764L33.4725 40.3866L33.3191 40.3968V40.5298C33.3395 41.9207 33.5952 43.066 34.0964 43.9149C34.618 44.8047 35.3748 45.449 36.3462 45.8376C37.3076 46.216 38.4735 46.4103 39.8235 46.4103C41.1018 46.4103 42.237 46.2774 43.0961 46.0217C43.9859 45.7558 44.6916 45.3263 45.2132 44.7331C45.7757 44.0887 46.1028 43.2706 46.1744 42.3194H43.362V42.3092Z" fill="white"/>
</svg>
