<svg width="80" height="30" viewBox="0 0 80 30" fill="none" xmlns="http://www.w3.org/2000/svg">
<path d="M0 10.5645V14.8955L11.744 13.6103V8.92263L0 10.5645ZM3.74771 15.1589V30H8.0473V14.7218L3.74771 15.1589ZM13.3301 8.70094V30H17.8606V8.06723L13.3301 8.70094ZM18.7047 7.94911V12.8488L25.2468 12.1327V7.03465L18.7047 7.94911ZM18.7047 16.4955V21.4845L22.9992 21.2515V16.1278L18.7047 16.4955ZM18.7047 25.0805V30H25.2468V24.8842L18.7047 25.0805ZM42.1656 4.66153V30H48.1048V3.83104L42.1656 4.66153ZM49.2139 3.67578V9.50421L57.8692 8.55745V2.46534L49.2139 3.67578ZM49.2139 13.8876V19.824L54.887 19.5158V13.4043L49.2139 13.8876ZM49.2139 24.163V30H57.8692V23.9031L49.2139 24.163ZM26.9779 6.7922V30H32.1387V6.07036L26.9779 6.7922ZM33.1019 24.6484V29.9998H40.5932V24.4235L33.1019 24.6484ZM77.274 2.17882C75.3969 0.414495 72.6446 -0.309184 69.6343 0.121056V6.5855C70.8533 6.51813 71.8412 6.96821 72.2813 7.87437C72.9762 9.30304 72.2592 11.4466 70.5679 13.4327C67.9573 16.4974 61.0154 22.7704 61.0154 22.7704L70.9809 22.4444C77.0699 16.5262 79.2566 12.9339 79.6489 8.45041C79.8551 6.07843 78.9897 3.79297 77.274 2.17882ZM80 30V23.2359L59.7871 23.8417M59.7871 23.8417L59.7892 29.9998H80M68.4723 0.266161C62.6003 1.51028 59.7169 5.80806 60.0496 12.8209L66.3105 12.2681C66.0253 8.30622 67.2434 7.36639 68.4754 6.84964L68.4723 0.266161Z" fill="#141414"/>
</svg>
