<svg width="42" height="42" viewBox="0 0 42 42" fill="none" xmlns="http://www.w3.org/2000/svg">
<path d="M36.042 38.8939C35.9309 40.5691 37.4281 42 39.107 42C40.7048 42 42 40.6814 42 39.0837C42 37.46 40.6841 35.9836 39.0615 36.045C38.12 36.0807 37.2509 36.246 36.75 36.75C36.2724 37.2305 36.1001 38.019 36.042 38.8939ZM16.4348 16.5375C22.7363 10.1966 30.917 6.88128 39.1089 6.06518C40.7147 5.90522 42 4.59593 42 2.98225C42 1.3352 40.663 -0.0108197 39.0205 0.112564C29.4707 0.829981 19.5827 4.9699 12.2609 12.3375C4.91767 19.7266 0.800851 29.4965 0.105713 39.0923C-0.0104198 40.6954 1.30298 42 2.9103 42C4.48544 42 5.76325 40.7449 5.91854 39.1775C6.73349 30.9513 10.1132 22.8986 16.4348 16.5375Z" fill="white"/>
<path d="M12.061 39.1196C11.9393 40.7227 13.2748 42 14.8824 42C16.4797 42 17.7751 40.737 18.0178 39.1583C18.796 34.097 21.0859 29.1823 25.0435 25.2C28.9888 21.23 33.855 18.9278 39.023 18.2935C40.6589 18.0927 42 16.7764 42 15.1283C42 13.5576 40.7799 12.2371 39.2107 12.3044C32.3416 12.599 25.6651 15.6495 20.6087 20.7375C15.5915 25.7861 12.5679 32.4396 12.061 39.1196Z" fill="white"/>
<path d="M24.1286 39.2221C23.9011 40.7696 25.2216 42 26.7858 42C28.4169 42 29.6991 40.6549 30.127 39.0809C30.675 37.0654 31.7906 35.2107 33.3913 33.6C34.994 31.9872 37.0831 30.9372 39.1604 30.3496C40.7371 29.9037 42 28.5658 42 26.9273C42 25.2497 40.6776 23.8352 39.0249 24.1237C35.4638 24.7452 31.8639 26.7369 29.2174 29.4C26.5248 32.1094 24.6544 35.6462 24.1286 39.2221Z" fill="white"/>
</svg>
