<svg width="50" height="50" viewBox="0 0 50 50" fill="none" xmlns="http://www.w3.org/2000/svg">
<path d="M28.6911 26.0074C28.6911 27.9229 27.1513 29.4755 25.2516 29.4755C23.352 29.4755 21.8121 27.9229 21.8121 26.0074C21.8121 24.092 23.352 22.5393 25.2516 22.5393C27.1513 22.5401 28.6911 24.0928 28.6911 26.0074Z" fill="#00AEEF"/>
<path d="M27.033 12.5355L27.1829 12.5052C31.5431 11.5925 34.707 7.66674 34.707 3.17064V1.79533C34.707 0.805735 33.9079 0 32.9265 0C31.9442 0 31.146 0.805735 31.146 1.79533V3.17064C31.146 4.81643 30.4944 6.34618 29.3111 7.47961C28.2065 8.53867 26.7769 9.10905 25.2525 9.11232C23.728 9.10905 22.2992 8.53867 21.1938 7.47961C20.0105 6.34618 19.3589 4.81643 19.3589 3.17064V1.79533C19.3589 0.805735 18.5599 0 17.5784 0C16.5962 0 15.7979 0.805735 15.7979 1.79533V3.17064C15.7979 7.66674 18.9618 11.5933 23.322 12.5052L23.4719 12.5355V16.7701L23.322 16.8003C18.9618 17.7131 15.7979 21.6388 15.7979 26.1349V27.5102C15.7979 28.4998 16.597 29.3055 17.5784 29.3055C18.5607 29.3055 19.3589 28.4998 19.3589 27.5102V26.1349C19.3589 24.4891 20.0105 22.9594 21.1938 21.8259C22.2984 20.7669 23.728 20.1965 25.2525 20.1932C26.7769 20.1965 28.2057 20.7669 29.3111 21.8259C30.4944 22.9594 31.146 24.4891 31.146 26.1349V27.5102C31.146 28.4998 31.945 29.3055 32.9265 29.3055C33.9087 29.3055 34.707 28.4998 34.707 27.5102V26.1349C34.707 21.6388 31.5431 17.7123 27.1829 16.8003L27.033 16.7701V12.5355ZM0.403598 38.9036C0.165329 38.5334 0 38.0897 0 37.7015C0 37.0355 0.495178 36.2404 1.48553 36.2404C2.10876 36.2404 2.49453 36.555 2.89813 37.2022L5.83273 41.8993L8.78596 37.2022C9.18956 36.555 9.57452 36.2404 10.1799 36.2404C11.1516 36.2404 11.6655 37.0355 11.6655 37.7015C11.6655 38.0897 11.5001 38.5522 11.2619 38.9036L7.35473 44.8959V48.1695C7.35473 49.1681 6.82308 49.8897 5.85055 49.8897C4.87884 49.8897 4.38285 49.1681 4.38285 48.1695V44.9327L0.403598 38.9036ZM19.0874 50C15.2905 50 12.2093 46.8931 12.2093 43.0646C12.2093 39.2362 15.2905 36.1293 19.0874 36.1293C22.8843 36.1293 25.9656 39.2362 25.9656 43.0646C25.9656 46.8931 22.8843 50 19.0874 50ZM19.0874 47.1154C21.2148 47.1154 22.9946 45.2661 22.9946 43.0654C22.9946 40.8648 21.2157 39.0155 19.0874 39.0155C16.9779 39.0155 15.1803 40.8648 15.1803 43.0654C15.1803 45.2661 16.9779 47.1154 19.0874 47.1154ZM27.9358 39.3293C26.9819 39.3293 26.3214 38.7933 26.3214 37.8314C26.3214 36.8696 26.9819 36.3336 27.9358 36.3336H36.5378C37.473 36.3336 38.17 36.8696 38.17 37.8314C38.17 38.7933 37.473 39.3293 36.5378 39.3293H33.7134V48.1695C33.7134 49.1681 33.2183 49.8897 32.2279 49.8897C31.2375 49.8897 30.7424 49.1681 30.7424 48.1695V39.3293H27.9358ZM45.8732 38.0529L49.7431 47.4292C49.9263 47.8549 50 48.1687 50 48.4645C50 49.334 49.3581 49.8889 48.5509 49.8889C47.9277 49.8889 47.4139 49.5563 47.157 48.8903L46.4049 46.9487H40.6637L39.893 48.8903C39.6361 49.5375 39.1409 49.8889 38.5177 49.8889C37.7843 49.8889 37.0686 49.3896 37.0686 48.4645C37.0686 48.1687 37.1424 47.8541 37.3256 47.4292L41.1954 38.0529C41.6355 36.9799 42.4427 36.3327 43.5246 36.3327C44.5895 36.3327 45.4332 36.9808 45.8732 38.0529ZM45.3051 44.2119L43.544 39.7551L41.7651 44.2119H45.3051Z" fill="#00AEEF"/>
</svg>
